<?xml version="1.0" encoding="UTF-8"?>
<svg id="Isolation_Mode" data-name="Isolation Mode" xmlns="http://www.w3.org/2000/svg" viewBox="0 0 400 180">
  <defs>
    <style>
      .cls-1 {
        fill: #fbfbfd;
      }
    </style>
  </defs>
  <path class="cls-1" d="m197.64,84.88l25.23-49.31h.94l25.23,49.31h-10.25l-3.84-7.76h-23.27l-3.78,7.76h-10.25Zm18.62-15.99h14.1l-7.02-14.91-7.08,14.91Z"/>
  <path class="cls-1" d="m265.03,84.88h-9.44v-49.38h22.43c2.52,0,4.83.42,6.93,1.25,2.09.83,3.89,2,5.37,3.51s2.65,3.31,3.48,5.4c.83,2.09,1.25,4.37,1.25,6.85,0,3.73-.94,6.99-2.81,9.78-1.87,2.79-4.36,4.79-7.47,6,4.15,5.49,8.25,11.02,12.3,16.6h-11.27c-1.97-2.56-3.9-5.15-5.78-7.76-1.88-2.61-3.77-5.26-5.65-7.96h-9.35v15.72Zm0-24.08h12.98c.85,0,1.74-.17,2.66-.51.92-.34,1.74-.85,2.45-1.55.72-.7,1.31-1.56,1.78-2.6.47-1.03.71-2.25.71-3.64,0-.72-.09-1.57-.27-2.56-.18-.99-.54-1.93-1.08-2.83-.54-.9-1.3-1.66-2.29-2.29-.99-.63-2.31-.94-3.97-.94h-12.98v16.93Z"/>
  <path class="cls-1" d="m343.89,43.87h-14.1v41.02h-9.44v-41.02h-14.17v-8.37h37.71v8.37Z"/>
  <path class="cls-1" d="m65.55,143.55h-9.44v-49.31h9.44v49.31Z"/>
  <path class="cls-1" d="m117.12,143.55l-33.67-29.34v29.34h-9.8v-49.31h1.05l33.67,29.82v-29.82h9.8v49.31h-1.05Z"/>
  <path class="cls-1" d="m125.18,137.08l5.92-7.56c2.85,1.71,5.8,3.18,8.84,4.42,3.04,1.24,6.21,1.85,9.54,1.85,1.76,0,3.32-.19,4.67-.57,1.35-.38,2.49-.88,3.43-1.48.93-.61,1.63-1.3,2.1-2.09.47-.79.7-1.56.7-2.33,0-.99-.35-1.83-1.05-2.53-.7-.7-1.63-1.27-2.8-1.72-1.17-.45-2.54-.83-4.13-1.15-1.58-.31-3.23-.61-4.94-.88-1.14-.18-2.47-.39-3.97-.64-1.51-.25-3.06-.58-4.67-1.01-1.61-.43-3.19-.99-4.75-1.69-1.56-.7-2.96-1.57-4.2-2.63-1.25-1.06-2.25-2.32-3-3.78-.75-1.46-1.13-3.18-1.13-5.16,0-2.88.67-5.27,2.02-7.18,1.35-1.91,3.08-3.42,5.18-4.52,2.1-1.1,4.44-1.88,7.01-2.33,2.57-.45,5.05-.67,7.43-.67s4.52.13,6.38.4c1.87.27,3.61.66,5.22,1.18,1.61.52,3.18,1.17,4.71,1.96,1.53.79,3.18,1.72,4.94,2.8l-6.07,7.42c-2.7-1.62-5.29-2.86-7.78-3.71-2.49-.85-5.11-1.28-7.86-1.28-.93,0-2,.1-3.19.3-1.19.2-2.32.53-3.39.98-1.06.45-1.95,1.02-2.65,1.72-.7.7-1.05,1.54-1.05,2.53s.41,1.82,1.25,2.5c.83.67,1.89,1.24,3.19,1.69,1.3.45,2.72.83,4.28,1.15,1.56.31,3.06.63,4.51.94,1.09.23,2.37.45,3.85.68,1.48.23,3.01.54,4.59.94,1.58.41,3.15.94,4.71,1.62,1.56.67,2.94,1.54,4.16,2.6,1.22,1.06,2.21,2.36,2.96,3.91.75,1.55,1.13,3.43,1.13,5.63,0,2.56-.52,4.79-1.56,6.68-1.04,1.89-2.52,3.45-4.44,4.69-1.92,1.24-4.2,2.17-6.85,2.8-2.65.63-5.58.95-8.8.95-2.96,0-5.57-.19-7.82-.57-2.26-.38-4.32-.9-6.19-1.55-1.87-.65-3.63-1.43-5.29-2.33-1.66-.9-3.37-1.89-5.14-2.97Z"/>
  <path class="cls-1" d="m188.06,143.55h-9.44v-49.31h9.44v49.31Z"/>
  <path class="cls-1" d="m248.17,116.57c-.05.95-.07,1.82-.07,2.63-.04.72-.07,1.43-.07,2.13s-.02,1.23-.07,1.58c-.27,3.1-1.11,5.98-2.53,8.64s-3.24,4.94-5.46,6.85c-2.23,1.91-4.79,3.41-7.69,4.49-2.9,1.08-5.95,1.62-9.14,1.62-3.51,0-6.81-.68-9.92-2.02-3.1-1.35-5.82-3.18-8.15-5.5-2.33-2.32-4.17-5.03-5.53-8.13-1.36-3.1-2.04-6.41-2.04-9.92s.68-6.82,2.04-9.95c1.36-3.12,3.2-5.85,5.53-8.16,2.33-2.32,5.04-4.15,8.15-5.5,3.1-1.35,6.41-2.02,9.92-2.02,4.45,0,8.53,1.04,12.24,3.1,3.71,2.07,6.71,4.84,9.01,8.3l-8.09,4.92c-1.44-2.11-3.32-3.89-5.63-5.33-2.32-1.44-4.82-2.16-7.52-2.16-2.25,0-4.35.46-6.31,1.38-1.96.92-3.67,2.15-5.13,3.68-1.46,1.53-2.62,3.32-3.47,5.36-.85,2.05-1.28,4.17-1.28,6.38s.43,4.38,1.28,6.41c.85,2.02,2.01,3.8,3.47,5.33,1.46,1.53,3.17,2.76,5.13,3.68,1.96.92,4.06,1.38,6.31,1.38,1.71,0,3.35-.26,4.92-.78,1.57-.52,3.01-1.25,4.32-2.19,1.3-.94,2.44-2.07,3.41-3.37.97-1.3,1.67-2.74,2.12-4.32h-18.21v-8.5h28.47Z"/>
  <path class="cls-1" d="m299.3,94.18v49.38h-9.44v-19.63h-24.35v19.63h-9.44v-49.38h9.44v21.38h24.35v-21.38h9.44Z"/>
  <path class="cls-1" d="m343.89,102.54h-14.1v41.01h-9.44v-41.01h-14.17v-8.37h37.71v8.37Z"/>
</svg>